<svg id="Layer_1" data-name="Layer 1" xmlns="http://www.w3.org/2000/svg" viewBox="0 0 296 172"><defs><style>.cls-1,.cls-3{fill:none;stroke-miterlimit:10;}.cls-1{stroke:#000;}.cls-2{fill:#bfbfbf;}.cls-3{stroke:#fefe00;}</style></defs><title>batmansvg</title><path class="cls-1" d="M155,326V314c1.75-23.54,16.49-38.37,34.47-50.8,17.76-12.29,37.75-19.45,58.61-24.5,11.5-2.79,23.22-3.56,34.92-4.7h34c1.93,1.08,4,.25,6,.52,38.4,1.66,73.49,12.64,103.67,37.17,9.74,7.92,16.58,18.05,21.27,29.67,1.65,4.07.93,8.5,2,12.64v11c-1.83,23.68-16.68,38.58-34.81,51.05-17.49,12-37.12,19.2-57.64,24.08a148.47,148.47,0,0,1-34.49,4.35c-2,.27-4.12-.56-6.06.52H287c-1.64-1.05-3.45-.28-5.17-.52-38.3-1.71-73.32-12.65-103.44-37.1-9.77-7.93-16.63-18.08-21.35-29.72C155.51,333.91,156.15,329.8,155,326Z" transform="translate(-154.5 -233.5)"/><path class="cls-2" d="M323,234c0,.28,0,.56.05.83-2-.06-4.25,1-6.05-.83Z" transform="translate(-154.5 -233.5)"/><path class="cls-2" d="M323.05,404.17c0,.27,0,.55-.05.83h-6C318.8,403.12,321,404.23,323.05,404.17Z" transform="translate(-154.5 -233.5)"/><path class="cls-2" d="M282,405c0-.28,0-.56-.05-.83,1.72,0,3.62-1,5.05.83Z" transform="translate(-154.5 -233.5)"/><path class="cls-3" d="M300.3,396.65c-33.67-.72-67.5-6.27-98.55-23.58a104.28,104.28,0,0,1-20.55-14.91c-25.6-23.92-25.4-55.18.54-78.7,17.84-16.17,39.28-25.34,62.31-30.8,49-11.64,97.33-9.82,144.31,9.55,17,7,32.18,16.8,43.25,31.89,14.5,19.74,13.59,42.13-2.25,60.92-15,17.81-35,27.62-56.55,34.82C351.92,392.83,325.86,396.68,300.3,396.65Z" transform="translate(-154.5 -233.5)"/><path class="cls-1" d="M356.12,257.73a143.31,143.31,0,0,1,28.18,9.32c14.32,6.39,28.21,13.5,38.11,26.41,12.78,16.66,13.22,34.38.85,51.45-8.86,12.23-21.1,20-34.77,25.85a2.29,2.29,0,0,1-2.5-.25c2.18-4.91,4.84-9.72,5-15.34.38-11.14-7.25-17.38-18.09-14.72-7.67,1.88-14,6.09-19.34,11.72-2,2.07-2.81,2.2-4.77-.13-12.4-14.69-20.68-14.63-33.09,0-5.47,6.43-9,13.88-11.59,21.86-.48,1.51-.92,3-1.54,5.1-3.93-11.51-8.23-22.12-16.46-30.55-9.59-9.84-16.69-9.82-26.3-.06-1.85,1.88-3.56,5.25-5.48,5.36s-4-3-6.17-4.6c-6.1-4.45-12.5-8.25-20.4-8.28-8.54,0-13.68,5.76-12.45,14.21a60,60,0,0,0,1.88,8.25c.78,2.69,1.86,5.29,2.9,8.18-1.92.62-3.25-.46-4.65-1.06-17.86-7.76-30.5-21-39.47-38-4.48-8.46-4-17.32-.47-26.05,5.74-14.29,16.92-23.58,29.4-31.6,12.13-7.81,25.46-12.76,39.32-16.44,1.13-.3,2.46-.94,3.33-.06,1.27,1.3-.29,2.44-.84,3.47-2.3,4.25-4.35,8.55-4.81,13.47-1.1,11.71,5.92,21.35,17.34,23.74,12,2.5,23-3.39,26.7-14.43,2.31-6.84,3-14,3.32-21.11.15-2.93.38-5.85.59-9,4.78,3.32,3.24,11.33,12.84,11.17,9-.16,9-6.58,13.1-11.53.17,9.47.55,18,2.28,26.38,2.12,10.32,9.77,17.09,21.19,18.87a21.6,21.6,0,0,0,22.33-10.88c4.19-7.74,2.36-15.5-.94-23C359.57,262.93,357.87,260.66,356.12,257.73Z" transform="translate(-154.5 -233.5)"/></svg>